<svg xmlns="http://www.w3.org/2000/svg" version="1.1" viewBox="0 0 400 650" width="200" height="200">
  <path transform="translate(63,144)"
    d="m0 0h195l12 7 17 1 6 5 13 7 11 7 9 9 2 3v7l3 3 4 2 1 2 1 13 4 6 3 3v24l-6 9-1 3-1 17-7 7-4 6-3 1-7 11-11 7-9 9 1 6 8 7 13 1 5 7 11 1 5 7 5 3 4 6 6 7v7l8 6v77l-5 6-3 3v7l-4 4-4 2-2 5-5 2-4 7-9 1-8 7-6 4-5 4-2 1-15 1-8 5-1 2h-219l-8-8v-52l1-1 1-9 1-1 1-15 1-1v-30l-1-1-1-51-1-1-1-11-1-2-1-12 7-8 3-7 7-6h13l30 3 20 5h63l1-1 13-1 15-5 22-2 8-6 6-2 2-6 5-3h2v-16l1-1v-10l-1-1-1-26-9-9-10-7-3-2-80-1-1-1-9-2h-18l-9 7-1 15-5 6h-60l-7-12-3-3v-57l5-3zm74 199-6 4-5 7-1 8 2 3 1 85 7 2h126l7-2 4-6 9-5 7-9 6-6v-45l-4-6-7-9-8-5-8-7-4-1h-15l-8-7-1-1z"
    fill="#121212" />
</svg>
